# xmcd CD database file
#
# Track frame offsets:
#	150
#	20088
#	33072
#	47946
#	70976
#	87129
#	102952
#	121590
#	139663
#	159269
#	175452
#	194072
#	214613
#	239769
#	275605
#	293944
#	311829
#
# Disc length: 4393 seconds
#
# Revision: 0
# Processed by: cddbd v1.5.2PL0 Copyright (c) Steve Scherf et al.
# Submitted via: CDex 1.51
#
DISCID=fd112711
DTITLE=Eli Young Band - Live At The Jolly Fox
DYEAR=2006
DGENRE=Country
TTITLE0=That's The Way
TTITLE1=Drive Away
TTITLE2=Girl In Red
TTITLE3=When You Come Down My Way
TTITLE4=Level
TTITLE5=So Close Now
TTITLE6=Highways And Broken Hearts
TTITLE7=Bottom Line
TTITLE8=When It Rains
TTITLE9=Show You How To Love Again
TTITLE10=Everything Is You
TTITLE11=When We Were Innocent
TTITLE12=Guardian Angel
TTITLE13=Small Town Kid
TTITLE14=I Call The Tune
TTITLE15=Here's To You
TTITLE16=Lonely All The Time
EXTD=YEAR: 2006
EXTT0=
EXTT1=
EXTT2=
EXTT3=
EXTT4=
EXTT5=
EXTT6=
EXTT7=
EXTT8=
EXTT9=
EXTT10=
EXTT11=
EXTT12=
EXTT13=
EXTT14=
EXTT15=
EXTT16=
PLAYORDER=
